<?xml version="1.0" encoding="utf-8"?>
<!-- Generator: Adobe Illustrator 16.0.4, SVG Export Plug-In . SVG Version: 6.00 Build 0)  -->
<!DOCTYPE svg PUBLIC "-//W3C//DTD SVG 1.1//EN" "http://www.w3.org/Graphics/SVG/1.1/DTD/svg11.dtd">
<svg version="1.1" id="Layer_1" xmlns="http://www.w3.org/2000/svg" xmlns:xlink="http://www.w3.org/1999/xlink" x="0px" y="0px"
	 width="1024px" height="1024px" viewBox="0 0 1024 1024" enable-background="new 0 0 1024 1024" xml:space="preserve">
<g>
	<linearGradient id="SVGID_1_" gradientUnits="userSpaceOnUse" x1="14.6826" y1="787.2119" x2="982.2033" y2="240.3522">
		<stop  offset="0" style="stop-color:#66CADB"/>
		<stop  offset="1" style="stop-color:#42BAEB"/>
	</linearGradient>
	<path fill="url(#SVGID_1_)" d="M940.856,597.963c5.454-27.914,8.392-56.711,8.392-86.227c0-43.999-6.461-86.465-18.301-126.626
		c53.444-52.639,79.12-94.72,66.292-116.929c-12.118-21.002-56.886-21.058-122.86-4.123
		c-43.986,11.292-97.565,30.312-157.152,55.653l-37.876-65.605c45.075-22.912,89.339-44.613,132.381-64.804
		c-80.363-77.189-189.421-124.73-309.644-124.73c-246.963,0-447.162,200.2-447.162,447.165c0,36.376,4.457,71.704,12.658,105.575
		c64.26-44.407,133.224-89.535,205.863-134.579l-15.261-26.414c5.771-16.494,13.135-32.454,22.204-47.53l-62.782-108.734
		c50.827-29.346,113.372-19.56,153.158,19.837c0.122-0.072,0.236-0.149,0.349-0.22c81.596-47.104,178.391-43.869,254.563-0.037
		c0.03,0.021,0.072,0.037,0.113,0.057c-0.092,87.927-45.691,173.426-127.327,220.555c-0.114,0.061-0.238,0.121-0.36,0.205
		c-26.886,15.466-55.427,25.306-84.328,30.193l0,0c29.989,4.171,59.896,2.813,88.281-3.348
		c1.973,45.846-20.857,91.157-63.355,115.703l-62.78-108.74c-17.593,0.309-35.093-1.273-52.254-4.54l-15.251-26.413
		c-87.059,58.252-159.39,114.88-209.025,163.005c-56.137,54.454-83.408,98.06-70.278,120.819
		c13.844,23.969,70.185,20.682,152.14-4.089c48.907,50.406,109.561,89.268,177.57,112.273
		c44.993,15.199,93.138,23.579,143.266,23.579C719.537,958.894,900.659,803.652,940.856,597.963z"/>
</g>
</svg>
