<?xml version="1.0" standalone="no"?><!DOCTYPE svg PUBLIC "-//W3C//DTD SVG 1.1//EN" "http://www.w3.org/Graphics/SVG/1.1/DTD/svg11.dtd"><svg t="1510058393165" class="icon" style="" viewBox="0 0 1024 1024" version="1.1" xmlns="http://www.w3.org/2000/svg" p-id="11469" xmlns:xlink="http://www.w3.org/1999/xlink" width="36" height="36"><defs><style type="text/css"></style></defs><path d="M362.666667 383.658667c-16.810667 0-32.597333 11.264-32.597334 26.965333 0 16.810667 16.810667 26.965333 32.597334 26.965333 16.810667 0 26.965333-11.264 26.965333-26.965333 0-15.701333-11.264-26.965333-26.965333-26.965333zM501.930667 383.658667c-16.810667 0-32.597333 11.264-32.597334 26.965333 0 16.810667 16.810667 26.965333 32.597334 26.965333 16.810667 0 26.965333-11.264 26.965333-26.965333-0.085333-15.701333-10.154667-26.965333-26.965333-26.965333zM681.472 513.877333c-10.069333 0-20.224 10.069333-20.224 20.224s10.069333 20.224 20.224 20.224c15.701333 0 25.856-10.069333 25.856-20.224s-10.069333-20.224-25.856-20.224zM572.586667 513.877333c-10.069333 0-20.224 10.069333-20.224 20.224s10.069333 20.224 20.224 20.224c15.701333 0 25.856-10.069333 25.856-20.224s-10.069333-20.224-25.856-20.224z" fill="#39C05E" p-id="11470"></path><path d="M512 6.485333C232.448 6.485333 6.826667 232.106667 6.826667 511.658667s225.621333 505.173333 505.173333 505.173333 505.173333-225.621333 505.173333-505.173333-225.621333-505.173333-505.173333-505.173334z m-85.333333 611.84c-24.661333 0-44.885333-5.632-69.632-10.069333l-69.632 34.816 20.224-59.477333c-49.408-34.816-79.701333-79.701333-79.701334-134.741334 0-95.402667 89.770667-169.472 199.850667-169.472 97.706667 0 184.149333 59.477333 200.96 140.288-6.741333-1.109333-12.373333-1.109333-19.114667-1.109333-94.293333 0-169.472 70.741333-169.472 158.293333 0 14.592 2.218667 28.074667 5.632 41.557334-6.741333-0.085333-12.373333-0.085333-19.114666-0.085334zM726.442667 694.613333l14.592 49.408-53.845334-30.293333c-20.224 4.522667-40.448 10.069333-59.477333 10.069333-95.402667 0-169.472-65.109333-169.472-144.810666s75.093333-144.810667 169.386667-144.810667c89.770667 0 169.472 65.109333 169.472 144.810667 0.085333 44.885333-30.293333 85.333333-70.656 115.626666z" fill="#39C05E" p-id="11471"></path></svg>